<mxfile host="app.diagrams.net" agent="Mozilla/5.0 (Windows NT 10.0; Win64; x64) AppleWebKit/537.36 (KHTML, like Gecko) Chrome/139.0.0.0 Safari/537.36" version="28.1.1">
  <diagram name="Page-1" id="Gq5SZT9E_bL-imFKy4DE">
    <mxGraphModel dx="1042" dy="562" grid="1" gridSize="10" guides="1" tooltips="1" connect="1" arrows="1" fold="1" page="1" pageScale="1" pageWidth="827" pageHeight="1169" math="0" shadow="0">
      <root>
        <mxCell id="0" />
        <mxCell id="1" parent="0" />
        <mxCell id="bhHPWnLezCkzr_7qNG7L-42" style="edgeStyle=orthogonalEdgeStyle;rounded=0;orthogonalLoop=1;jettySize=auto;html=1;entryX=0.5;entryY=0;entryDx=0;entryDy=0;" edge="1" parent="1" source="bhHPWnLezCkzr_7qNG7L-1" target="bhHPWnLezCkzr_7qNG7L-5">
          <mxGeometry relative="1" as="geometry" />
        </mxCell>
        <mxCell id="bhHPWnLezCkzr_7qNG7L-43" style="edgeStyle=orthogonalEdgeStyle;rounded=0;orthogonalLoop=1;jettySize=auto;html=1;exitX=1;exitY=0.5;exitDx=0;exitDy=0;entryX=0;entryY=0.5;entryDx=0;entryDy=0;" edge="1" parent="1" source="bhHPWnLezCkzr_7qNG7L-1" target="bhHPWnLezCkzr_7qNG7L-2">
          <mxGeometry relative="1" as="geometry" />
        </mxCell>
        <mxCell id="bhHPWnLezCkzr_7qNG7L-1" value="&lt;font style=&quot;font-size: 16px;&quot;&gt;Admin&lt;/font&gt;" style="rounded=0;whiteSpace=wrap;html=1;fillColor=#e1d5e7;strokeColor=#9673a6;gradientColor=#FF9999;" vertex="1" parent="1">
          <mxGeometry x="35" y="120" width="120" height="60" as="geometry" />
        </mxCell>
        <mxCell id="bhHPWnLezCkzr_7qNG7L-2" value="&lt;font style=&quot;font-size: 16px;&quot;&gt;Login to&lt;/font&gt;&lt;div&gt;&lt;font style=&quot;font-size: 16px;&quot;&gt;System&lt;/font&gt;&lt;/div&gt;" style="ellipse;whiteSpace=wrap;html=1;fillColor=#e1d5e7;strokeColor=#9673a6;gradientColor=#FF9999;" vertex="1" parent="1">
          <mxGeometry x="210" y="105" width="90" height="90" as="geometry" />
        </mxCell>
        <mxCell id="bhHPWnLezCkzr_7qNG7L-4" value="&lt;font style=&quot;font-size: 16px;&quot;&gt;Check&lt;/font&gt;&lt;div&gt;&lt;font style=&quot;font-size: 16px;&quot;&gt;Roles of&lt;/font&gt;&lt;/div&gt;&lt;div&gt;&lt;font style=&quot;font-size: 16px;&quot;&gt;Access&lt;/font&gt;&lt;/div&gt;" style="ellipse;whiteSpace=wrap;html=1;fillColor=#e1d5e7;strokeColor=#9673a6;gradientColor=#FF9999;" vertex="1" parent="1">
          <mxGeometry x="332" y="115" width="96" height="85" as="geometry" />
        </mxCell>
        <mxCell id="bhHPWnLezCkzr_7qNG7L-46" value="" style="edgeStyle=orthogonalEdgeStyle;rounded=0;orthogonalLoop=1;jettySize=auto;html=1;" edge="1" parent="1" source="bhHPWnLezCkzr_7qNG7L-5" target="bhHPWnLezCkzr_7qNG7L-8">
          <mxGeometry relative="1" as="geometry">
            <Array as="points">
              <mxPoint x="95" y="340" />
              <mxPoint x="95" y="340" />
            </Array>
          </mxGeometry>
        </mxCell>
        <mxCell id="bhHPWnLezCkzr_7qNG7L-5" value="&lt;font style=&quot;font-size: 16px;&quot;&gt;Forgot&lt;/font&gt;&lt;div&gt;&lt;font style=&quot;font-size: 16px;&quot;&gt;Password&lt;/font&gt;&lt;/div&gt;" style="ellipse;whiteSpace=wrap;html=1;fillColor=#e1d5e7;strokeColor=#9673a6;gradientColor=#FF9999;" vertex="1" parent="1">
          <mxGeometry x="50" y="240" width="90" height="80" as="geometry" />
        </mxCell>
        <mxCell id="bhHPWnLezCkzr_7qNG7L-6" value="&lt;font style=&quot;font-size: 16px;&quot;&gt;Check&lt;/font&gt;&lt;div&gt;&lt;font style=&quot;font-size: 16px;&quot;&gt;Credentials&lt;/font&gt;&lt;/div&gt;" style="ellipse;whiteSpace=wrap;html=1;fillColor=#e1d5e7;strokeColor=#9673a6;gradientColor=#FF9999;" vertex="1" parent="1">
          <mxGeometry x="200" y="250" width="90" height="80" as="geometry" />
        </mxCell>
        <mxCell id="bhHPWnLezCkzr_7qNG7L-8" value="&lt;font style=&quot;font-size: 16px;&quot;&gt;Send Email&lt;/font&gt;&lt;div&gt;&lt;font style=&quot;font-size: 16px;&quot;&gt;to user&lt;/font&gt;&lt;/div&gt;" style="ellipse;whiteSpace=wrap;html=1;fillColor=#e1d5e7;strokeColor=#9673a6;gradientColor=#FF9999;" vertex="1" parent="1">
          <mxGeometry x="50" y="360" width="90" height="80" as="geometry" />
        </mxCell>
        <mxCell id="bhHPWnLezCkzr_7qNG7L-9" value="&lt;font style=&quot;font-size: 22px;&quot;&gt;&lt;b&gt;Student Information System&lt;/b&gt;&lt;/font&gt;" style="rounded=0;whiteSpace=wrap;html=1;fillColor=#e1d5e7;strokeColor=#9673a6;gradientColor=#FF9999;" vertex="1" parent="1">
          <mxGeometry x="200" y="30" width="390" height="40" as="geometry" />
        </mxCell>
        <mxCell id="bhHPWnLezCkzr_7qNG7L-10" value="&lt;font style=&quot;font-size: 16px;&quot;&gt;Manage Timetable Details&lt;/font&gt;" style="rounded=0;whiteSpace=wrap;html=1;fillColor=#e1d5e7;strokeColor=#9673a6;gradientColor=#FF9999;" vertex="1" parent="1">
          <mxGeometry x="540" y="110" width="240" height="30" as="geometry" />
        </mxCell>
        <mxCell id="bhHPWnLezCkzr_7qNG7L-14" style="edgeStyle=orthogonalEdgeStyle;rounded=0;orthogonalLoop=1;jettySize=auto;html=1;exitX=0.25;exitY=0;exitDx=0;exitDy=0;" edge="1" parent="1" source="bhHPWnLezCkzr_7qNG7L-11">
          <mxGeometry relative="1" as="geometry">
            <mxPoint x="620" y="170" as="targetPoint" />
          </mxGeometry>
        </mxCell>
        <mxCell id="bhHPWnLezCkzr_7qNG7L-11" value="&lt;font style=&quot;font-size: 16px;&quot;&gt;Manage Attendence Details&lt;/font&gt;" style="rounded=0;whiteSpace=wrap;html=1;fillColor=#e1d5e7;strokeColor=#9673a6;gradientColor=#FF9999;" vertex="1" parent="1">
          <mxGeometry x="540" y="160" width="240" height="30" as="geometry" />
        </mxCell>
        <mxCell id="bhHPWnLezCkzr_7qNG7L-12" value="&lt;font style=&quot;font-size: 16px;&quot;&gt;Manage Class Details&lt;/font&gt;" style="rounded=0;whiteSpace=wrap;html=1;fillColor=#e1d5e7;strokeColor=#9673a6;gradientColor=#FF9999;" vertex="1" parent="1">
          <mxGeometry x="540" y="220" width="240" height="30" as="geometry" />
        </mxCell>
        <mxCell id="bhHPWnLezCkzr_7qNG7L-13" value="&lt;font style=&quot;font-size: 16px;&quot;&gt;Manage Student Details&lt;/font&gt;" style="rounded=0;whiteSpace=wrap;html=1;fillColor=#e1d5e7;strokeColor=#9673a6;gradientColor=#FF9999;" vertex="1" parent="1">
          <mxGeometry x="540" y="280" width="240" height="30" as="geometry" />
        </mxCell>
        <mxCell id="bhHPWnLezCkzr_7qNG7L-16" value="&lt;font style=&quot;font-size: 16px;&quot;&gt;Manage Fees Details&lt;/font&gt;" style="rounded=0;whiteSpace=wrap;html=1;fillColor=#e1d5e7;strokeColor=#9673a6;gradientColor=#FF9999;" vertex="1" parent="1">
          <mxGeometry x="540" y="340" width="240" height="30" as="geometry" />
        </mxCell>
        <mxCell id="bhHPWnLezCkzr_7qNG7L-17" value="&lt;font style=&quot;font-size: 16px;&quot;&gt;Manage Teacher Profiles&lt;/font&gt;" style="rounded=0;whiteSpace=wrap;html=1;fillColor=#e1d5e7;strokeColor=#9673a6;gradientColor=#FF9999;" vertex="1" parent="1">
          <mxGeometry x="540" y="400" width="240" height="30" as="geometry" />
        </mxCell>
        <mxCell id="bhHPWnLezCkzr_7qNG7L-19" value="&lt;font style=&quot;font-size: 16px;&quot;&gt;Manage System Admins&lt;/font&gt;" style="rounded=0;whiteSpace=wrap;html=1;fillColor=#e1d5e7;strokeColor=#9673a6;gradientColor=#FF9999;" vertex="1" parent="1">
          <mxGeometry x="20" y="510" width="200" height="30" as="geometry" />
        </mxCell>
        <mxCell id="bhHPWnLezCkzr_7qNG7L-20" value="&lt;font style=&quot;font-size: 16px;&quot;&gt;Manage Roles of User&lt;/font&gt;" style="rounded=0;whiteSpace=wrap;html=1;fillColor=#e1d5e7;strokeColor=#9673a6;gradientColor=#FF9999;" vertex="1" parent="1">
          <mxGeometry x="270" y="510" width="230" height="30" as="geometry" />
        </mxCell>
        <mxCell id="bhHPWnLezCkzr_7qNG7L-21" value="&lt;font style=&quot;font-size: 16px;&quot;&gt;Manage user Permission&lt;/font&gt;" style="rounded=0;whiteSpace=wrap;html=1;fillColor=#e1d5e7;strokeColor=#9673a6;gradientColor=#FF9999;" vertex="1" parent="1">
          <mxGeometry x="540" y="510" width="240" height="30" as="geometry" />
        </mxCell>
        <mxCell id="bhHPWnLezCkzr_7qNG7L-32" value="&lt;font style=&quot;font-size: 16px;&quot;&gt;Manage Reports&lt;/font&gt;" style="rounded=0;whiteSpace=wrap;html=1;fillColor=#e1d5e7;strokeColor=#9673a6;gradientColor=#FF9999;" vertex="1" parent="1">
          <mxGeometry x="540" y="450" width="240" height="30" as="geometry" />
        </mxCell>
        <mxCell id="bhHPWnLezCkzr_7qNG7L-39" value="" style="endArrow=classic;html=1;rounded=0;entryX=0;entryY=0.25;entryDx=0;entryDy=0;" edge="1" parent="1" source="bhHPWnLezCkzr_7qNG7L-7" target="bhHPWnLezCkzr_7qNG7L-32">
          <mxGeometry width="50" height="50" relative="1" as="geometry">
            <mxPoint x="340" y="320" as="sourcePoint" />
            <mxPoint x="390" y="270" as="targetPoint" />
          </mxGeometry>
        </mxCell>
        <mxCell id="bhHPWnLezCkzr_7qNG7L-40" value="" style="endArrow=classic;html=1;rounded=0;" edge="1" parent="1" source="bhHPWnLezCkzr_7qNG7L-7">
          <mxGeometry width="50" height="50" relative="1" as="geometry">
            <mxPoint x="340" y="320" as="sourcePoint" />
            <mxPoint x="390" y="270" as="targetPoint" />
          </mxGeometry>
        </mxCell>
        <mxCell id="bhHPWnLezCkzr_7qNG7L-7" value="&lt;font style=&quot;font-size: 16px;&quot;&gt;Manage&lt;/font&gt;&lt;div&gt;&lt;font style=&quot;font-size: 16px;&quot;&gt;Modules&lt;/font&gt;&lt;/div&gt;" style="ellipse;whiteSpace=wrap;html=1;fillColor=#e1d5e7;strokeColor=#9673a6;gradientColor=#FF9999;" vertex="1" parent="1">
          <mxGeometry x="340" y="250" width="100" height="80" as="geometry" />
        </mxCell>
        <mxCell id="bhHPWnLezCkzr_7qNG7L-45" style="edgeStyle=orthogonalEdgeStyle;rounded=0;orthogonalLoop=1;jettySize=auto;html=1;exitX=0.5;exitY=1;exitDx=0;exitDy=0;entryX=0.618;entryY=0.013;entryDx=0;entryDy=0;entryPerimeter=0;" edge="1" parent="1" source="bhHPWnLezCkzr_7qNG7L-2" target="bhHPWnLezCkzr_7qNG7L-6">
          <mxGeometry relative="1" as="geometry" />
        </mxCell>
        <mxCell id="bhHPWnLezCkzr_7qNG7L-48" value="" style="endArrow=classic;html=1;rounded=0;exitX=0.947;exitY=0.353;exitDx=0;exitDy=0;exitPerimeter=0;" edge="1" parent="1" source="bhHPWnLezCkzr_7qNG7L-6">
          <mxGeometry width="50" height="50" relative="1" as="geometry">
            <mxPoint x="300" y="260" as="sourcePoint" />
            <mxPoint x="360" y="190" as="targetPoint" />
          </mxGeometry>
        </mxCell>
        <mxCell id="bhHPWnLezCkzr_7qNG7L-49" style="edgeStyle=orthogonalEdgeStyle;rounded=0;orthogonalLoop=1;jettySize=auto;html=1;exitX=0.5;exitY=1;exitDx=0;exitDy=0;entryX=0.404;entryY=0.018;entryDx=0;entryDy=0;entryPerimeter=0;" edge="1" parent="1" source="bhHPWnLezCkzr_7qNG7L-4" target="bhHPWnLezCkzr_7qNG7L-7">
          <mxGeometry relative="1" as="geometry" />
        </mxCell>
        <mxCell id="bhHPWnLezCkzr_7qNG7L-50" value="" style="endArrow=classic;html=1;rounded=0;entryX=0;entryY=1;entryDx=0;entryDy=0;" edge="1" parent="1" source="bhHPWnLezCkzr_7qNG7L-7" target="bhHPWnLezCkzr_7qNG7L-10">
          <mxGeometry width="50" height="50" relative="1" as="geometry">
            <mxPoint x="220" y="340" as="sourcePoint" />
            <mxPoint x="270" y="290" as="targetPoint" />
          </mxGeometry>
        </mxCell>
        <mxCell id="bhHPWnLezCkzr_7qNG7L-51" value="" style="endArrow=classic;html=1;rounded=0;entryX=0;entryY=0.5;entryDx=0;entryDy=0;" edge="1" parent="1" source="bhHPWnLezCkzr_7qNG7L-7" target="bhHPWnLezCkzr_7qNG7L-11">
          <mxGeometry width="50" height="50" relative="1" as="geometry">
            <mxPoint x="220" y="340" as="sourcePoint" />
            <mxPoint x="270" y="290" as="targetPoint" />
          </mxGeometry>
        </mxCell>
        <mxCell id="bhHPWnLezCkzr_7qNG7L-52" value="" style="endArrow=classic;html=1;rounded=0;entryX=0;entryY=0.75;entryDx=0;entryDy=0;" edge="1" parent="1" target="bhHPWnLezCkzr_7qNG7L-12">
          <mxGeometry width="50" height="50" relative="1" as="geometry">
            <mxPoint x="430" y="270" as="sourcePoint" />
            <mxPoint x="270" y="290" as="targetPoint" />
          </mxGeometry>
        </mxCell>
        <mxCell id="bhHPWnLezCkzr_7qNG7L-53" value="" style="endArrow=classic;html=1;rounded=0;entryX=0.542;entryY=-0.007;entryDx=0;entryDy=0;entryPerimeter=0;exitX=0.26;exitY=0.938;exitDx=0;exitDy=0;exitPerimeter=0;" edge="1" parent="1" source="bhHPWnLezCkzr_7qNG7L-7" target="bhHPWnLezCkzr_7qNG7L-19">
          <mxGeometry width="50" height="50" relative="1" as="geometry">
            <mxPoint x="360" y="330" as="sourcePoint" />
            <mxPoint x="270" y="290" as="targetPoint" />
          </mxGeometry>
        </mxCell>
        <mxCell id="bhHPWnLezCkzr_7qNG7L-54" value="" style="endArrow=classic;html=1;rounded=0;entryX=0.563;entryY=0.02;entryDx=0;entryDy=0;entryPerimeter=0;" edge="1" parent="1" source="bhHPWnLezCkzr_7qNG7L-7" target="bhHPWnLezCkzr_7qNG7L-20">
          <mxGeometry width="50" height="50" relative="1" as="geometry">
            <mxPoint x="220" y="340" as="sourcePoint" />
            <mxPoint x="270" y="290" as="targetPoint" />
          </mxGeometry>
        </mxCell>
        <mxCell id="bhHPWnLezCkzr_7qNG7L-55" value="" style="endArrow=classic;html=1;rounded=0;entryX=0;entryY=0;entryDx=0;entryDy=0;exitX=0.628;exitY=0.968;exitDx=0;exitDy=0;exitPerimeter=0;" edge="1" parent="1" source="bhHPWnLezCkzr_7qNG7L-7" target="bhHPWnLezCkzr_7qNG7L-21">
          <mxGeometry width="50" height="50" relative="1" as="geometry">
            <mxPoint x="220" y="340" as="sourcePoint" />
            <mxPoint x="270" y="290" as="targetPoint" />
          </mxGeometry>
        </mxCell>
        <mxCell id="bhHPWnLezCkzr_7qNG7L-56" value="" style="endArrow=classic;html=1;rounded=0;entryX=0;entryY=0.5;entryDx=0;entryDy=0;" edge="1" parent="1" target="bhHPWnLezCkzr_7qNG7L-17">
          <mxGeometry width="50" height="50" relative="1" as="geometry">
            <mxPoint x="430" y="310" as="sourcePoint" />
            <mxPoint x="270" y="290" as="targetPoint" />
          </mxGeometry>
        </mxCell>
        <mxCell id="bhHPWnLezCkzr_7qNG7L-57" value="" style="endArrow=classic;html=1;rounded=0;entryX=0;entryY=0.5;entryDx=0;entryDy=0;" edge="1" parent="1" source="bhHPWnLezCkzr_7qNG7L-7" target="bhHPWnLezCkzr_7qNG7L-13">
          <mxGeometry width="50" height="50" relative="1" as="geometry">
            <mxPoint x="220" y="340" as="sourcePoint" />
            <mxPoint x="270" y="290" as="targetPoint" />
          </mxGeometry>
        </mxCell>
        <mxCell id="bhHPWnLezCkzr_7qNG7L-58" value="" style="endArrow=classic;html=1;rounded=0;entryX=0;entryY=0;entryDx=0;entryDy=0;" edge="1" parent="1" source="bhHPWnLezCkzr_7qNG7L-7" target="bhHPWnLezCkzr_7qNG7L-16">
          <mxGeometry width="50" height="50" relative="1" as="geometry">
            <mxPoint x="220" y="340" as="sourcePoint" />
            <mxPoint x="270" y="290" as="targetPoint" />
          </mxGeometry>
        </mxCell>
      </root>
    </mxGraphModel>
  </diagram>
</mxfile>
